<?xml version="1.0" standalone="no"?><!DOCTYPE svg PUBLIC "-//W3C//DTD SVG 1.1//EN" "http://www.w3.org/Graphics/SVG/1.1/DTD/svg11.dtd"><svg t="1611804782907" class="icon" viewBox="0 0 1024 1024" version="1.1" xmlns="http://www.w3.org/2000/svg" p-id="1101" xmlns:xlink="http://www.w3.org/1999/xlink" width="200" height="200"><defs><style type="text/css"></style></defs><path d="M944 536a88 88 0 0 0-80.88-87.71S848 112 512 112c-352 0-351.12 336.29-351.12 336.29A88 88 0 0 0 166.29 624C197.42 797.14 340.36 928 512 928s314.58-130.86 345.71-304A88 88 0 0 0 944 536z" fill="#FFCEBF" p-id="1102"></path><path d="M880 448c0-203.24-147.09-352-368-352S144 244.76 144 448c0 0 80 0 208-96-16 48-32 80-32 80s176-16 368-96c0 48-48 80-48 80s64 32 144-48c48 80 96 80 96 80z" fill="#644B46" p-id="1103"></path><path d="M384 496h-18.74a48 48 0 0 0-90.52 0H256a16 16 0 0 0 0 32h18.74a48 48 0 0 0 90.52 0H384a16 16 0 0 0 0-32zM768 496h-18.74a48 48 0 0 0-90.52 0H640a16 16 0 0 0 0 32h18.74a48 48 0 0 0 90.52 0H768a16 16 0 0 0 0-32z" fill="#222222" p-id="1104"></path><path d="M895.91 440c-0.91-49.23-10.14-95.87-27.52-138.72A340.18 340.18 0 0 0 790 184.31c-34.2-33.24-75.11-59.09-121.6-76.84C620.65 89.24 568 80 512 80s-108.65 9.24-156.4 27.47c-46.49 17.75-87.4 43.6-121.6 76.84a340.18 340.18 0 0 0-78.39 116.94C138.23 344.1 129 390.74 128.09 440a104 104 0 0 0 24.8 198.93 405.28 405.28 0 0 0 19.9 66 392.06 392.06 0 0 0 78.64 124.23 366.42 366.42 0 0 0 117 84 349.28 349.28 0 0 0 287.18 0 366.42 366.42 0 0 0 117-84 392.06 392.06 0 0 0 78.6-124.26 405.28 405.28 0 0 0 19.9-66 104 104 0 0 0 24.8-198.9z m-49.06-23c-13.55-9.92-31.15-27.24-49.13-57.21a16 16 0 0 0-25-3.08C743.41 386 712.33 403 682.79 405.87c-2.92 0.29-5.69 0.42-8.31 0.44C688.89 390.06 704 365.89 704 336a16 16 0 0 0-22.15-14.77c-143.31 59.71-279 83.47-335.58 91.41 5.92-14 13.4-33.05 20.91-55.58a16 16 0 0 0-24.78-17.86C279 386.72 228.38 409.43 197 420.11c-7.37 2.52-14 4.49-20 6.06-6.45 1.7-12 2.91-16.66 3.76C169 241.81 311.12 112 512 112c199.8 0 341.51 128.41 351.44 314.9a88.51 88.51 0 0 1-8-4.23c-2.63-1.56-5.51-3.43-8.59-5.67zM96 536a72.12 72.12 0 0 1 48.72-68.12l-0.72 85v0.12a419.32 419.32 0 0 0 3.22 51.89A72.12 72.12 0 0 1 96 536z m748.21 71q-2.28 16-5.83 31.48C802.4 795.31 669.71 912 512 912S221.6 795.31 185.62 638.5q-3.55-15.5-5.83-31.5a384.49 384.49 0 0 1-3.79-53.89l0.75-88.56v-5.34c29.88-6.9 79-23.73 142.37-64.76-7.78 18.93-13.38 30.21-13.47 30.39a16 16 0 0 0 15.76 23.09c1.83-0.16 45.68-4.24 113.78-18.26C492 418 576 397 665.93 362.13c-11.32 24.44-34.52 40.37-34.8 40.56a16 16 0 0 0 1.71 27.62c1.37 0.68 16.71 8.06 41.12 8.05 26.87 0 64.72-8.94 106.94-45.59 18.66 27.06 39.23 46.94 61.33 59.22 1.69 0.94 3.33 1.79 4.94 2.59l0.08 10 0.75 88.56a384.49 384.49 0 0 1-3.79 53.86z m32.57-2.09A419.32 419.32 0 0 0 880 553l-0.72-85.16a72 72 0 0 1-2.5 137z" fill="#222222" p-id="1105"></path><path d="M192 624a56 32 0 1 0 112 0 56 32 0 1 0-112 0Z" fill="#FFA096" p-id="1106"></path><path d="M720 624a56 32 0 1 0 112 0 56 32 0 1 0-112 0Z" fill="#FFA096" p-id="1107"></path><path d="M512 848c67.48 0 124.47-43.53 142.65-103.17 6.22-20.41-9.8-40.83-31.77-40.83H401.12c-22 0-38 20.42-31.77 40.83C387.53 804.47 444.52 848 512 848z" fill="#FF6242" p-id="1108"></path><path d="M594.62 832c0-44.18-37-80-82.62-80s-82.62 35.82-82.62 80c0 0 18.62 16 82.62 16s82.62-16 82.62-16z" fill="#FFA096" p-id="1109"></path><path d="M662.68 707.89a49.62 49.62 0 0 0-39.8-19.89H401.12a49.62 49.62 0 0 0-39.8 19.89 46.48 46.48 0 0 0-7.27 41.6q1.18 3.91 2.6 7.75c0 0.08 0 0.17 0.07 0.25l0.36 1 0.09 0.23a158.88 158.88 0 0 0 38.72 58.78 162.46 162.46 0 0 0 16.82 14.22 166.28 166.28 0 0 0 96 32.3h6.54a166.28 166.28 0 0 0 96-32.3 162.46 162.46 0 0 0 16.82-14.22 158.89 158.89 0 0 0 38.73-58.8 1.67 1.67 0 0 1 0.08-0.2c0.11-0.32 0.24-0.64 0.36-1 0-0.09 0-0.17 0.07-0.25q1.41-3.84 2.6-7.75a46.48 46.48 0 0 0-7.23-41.61zM387 726.93a17.31 17.31 0 0 1 14.12-6.93h221.76a17.31 17.31 0 0 1 14.12 6.93 14.69 14.69 0 0 1 2.37 13.23c-0.87 2.86-1.86 5.67-2.93 8.43-0.25 0.66-0.5 1.32-0.77 2-0.47 1.18-1 2.33-1.48 3.49-0.16 0.36-0.31 0.72-0.47 1.07-19.37 42.71-62.13 72.44-110.58 76.42h-0.25c-1.56 0.13-3.13 0.22-4.69 0.29h-0.76c-1.8 0.07-3.6 0.11-5.41 0.11s-3.61 0-5.41-0.11h-0.76c-1.56-0.07-3.13-0.16-4.69-0.29h-0.25c-48.44-4-91.2-33.7-110.58-76.41l-0.48-1.1c-0.5-1.15-1-2.3-1.47-3.46-0.27-0.66-0.52-1.33-0.78-2-1.06-2.76-2.05-5.56-2.92-8.41a14.7 14.7 0 0 1 2.31-13.26z" fill="#222222" p-id="1110"></path></svg>