<?xml version="1.0" standalone="no"?><!DOCTYPE svg PUBLIC "-//W3C//DTD SVG 1.1//EN" "http://www.w3.org/Graphics/SVG/1.1/DTD/svg11.dtd"><svg t="1611804823032" class="icon" viewBox="0 0 1024 1024" version="1.1" xmlns="http://www.w3.org/2000/svg" p-id="1455" xmlns:xlink="http://www.w3.org/1999/xlink" width="200" height="200"><defs><style type="text/css"></style></defs><path d="M927.06 907.92C961 874 946.66 746.49 859.18 659s-215-101.83-248.9-67.89-30.91 172.74 56.57 260.22 226.27 90.53 260.21 56.59zM416.87 594.28c33.94 33.94 19.59 161.42-67.88 248.9S134 945 100.09 911.06s-30.91-172.73 56.56-260.21 226.28-90.51 260.22-56.57z" fill="#AA6E50" p-id="1456"></path><path d="M168 518.2m-88 0a88 88 0 1 0 176 0 88 88 0 1 0-176 0Z" fill="#FFCEBF" p-id="1457"></path><path d="M856 518.2m-88 0a88 88 0 1 0 176 0 88 88 0 1 0-176 0Z" fill="#FFCEBF" p-id="1458"></path><path d="M862.72 384.11L864 535.24c0 207.08-157.6 375-352 375s-352-167.88-352-375l1.28-151.13S192 110.2 512 110.2s350.72 273.91 350.72 273.91z" fill="#FFCEBF" p-id="1459"></path><path d="M880 429.82c0-203.24-147.09-352-368-352s-368 148.76-368 352c0 0 352 16 496-160 112 112 240 160 240 160z" fill="#AA6E50" p-id="1460"></path><path d="M870.49 647.7c-1.54-1.54-3.11-3.07-4.69-4.58 2-7.29 3.75-14.63 5.31-22a104 104 0 0 0 24.8-198.92c-0.86-49.37-10.1-96.14-27.52-139.11A340.24 340.24 0 0 0 790 166.13c-34.2-33.24-75.11-59.1-121.6-76.84C620.65 71.06 568 61.82 512 61.82s-108.65 9.24-156.4 27.47c-46.49 17.71-87.4 43.6-121.6 76.84a340.24 340.24 0 0 0-78.39 116.93C138.19 326 129 372.8 128.09 422.17a104 104 0 0 0 24.8 198.92q1 4.67 2.09 9.31c-3.25 2.93-6.47 6-9.64 9.14-55.8 55.8-73 123.65-78.33 159.13-8.01 53.88 0.49 102.44 21.76 123.71 11 11 28.4 18.09 50.41 20.6a168.16 168.16 0 0 0 18.87 1 235.71 235.71 0 0 0 49.83-5.71c45.47-9.94 89.33-31.09 126.42-60.61a359.3 359.3 0 0 0 34.11 17.64 349.28 349.28 0 0 0 287.18 0q12-5.43 23.62-11.71C729.45 923 784.08 936.42 814.67 941a265.45 265.45 0 0 0 39.05 3c37.39 0 68.7-8.8 84.66-24.75 11-11 18.08-28.4 20.59-50.41 2.32-20.31 0.69-44.06-4.69-68.69-12.37-56.65-42.13-110.79-83.79-152.45z m8.79-197.62a72 72 0 0 1-2.5 137.05 419.45 419.45 0 0 0 3.22-51.89zM96 518.2a72.1 72.1 0 0 1 48.72-68.12l-0.72 85v0.14a419.45 419.45 0 0 0 3.22 51.89A72.13 72.13 0 0 1 96 518.2zM467.13 96.06Q489 94.2 512 94.2q23.37 0 45.53 1.91c174.32 17.91 295.1 139 305.71 309.09-4.82-2.21-10.32-4.82-16.4-7.83-45.66-22.56-124.28-67.62-195.53-138.87l-12.5-12.5-11.19 13.69c-71.14 86.94-197.88 124.25-291.68 140.25A1044.11 1044.11 0 0 1 177 414.11c-6.45 0.08-12.06 0.08-16.71 0 6.89-175 129.12-300.11 306.84-318.05zM201 907c-46.45 10.15-79 3.35-89.64-7.27-11.69-11.73-19.83-48.57-12.7-96.33 4.62-30.91 19.34-89.4 66.22-138.07q3.65 11 7.91 21.76a391.84 391.84 0 0 0 78.64 124.23 375.66 375.66 0 0 0 54.43 47.88A280.47 280.47 0 0 1 201 907z m452.59-46.31a316.35 316.35 0 0 1-294-5.59q-14.51-7.92-28.19-17.26c-66.1-45.17-116.5-114.36-140.32-196q-3.06-10.49-5.53-21.22c-0.94-4.09-1.79-8.22-2.6-12.37-1.22-6.32-2.31-12.68-3.23-19.11A384.38 384.38 0 0 1 176 535.3l0.75-88.55v-0.58a1066.94 1066.94 0 0 0 163.93-14.58c62.82-10.67 119.17-26.77 167.47-47.86 54.75-23.9 99.34-54.35 132.81-90.64 55.5 52.78 113.28 90.11 153.17 112.66 21.12 11.93 39.3 21 53 27.33l0.11 13.67 0.76 88.55a384.38 384.38 0 0 1-3.79 53.91q-2.22 15.59-5.66 30.7c-0.06 0.26-0.11 0.52-0.17 0.78q-3.82 16.66-9.09 32.68c-26.36 80.58-78.9 148.14-146.67 191a331.25 331.25 0 0 1-28.99 16.34z m262.16 35.91c-11.73 11.73-48.6 19.88-96.36 12.74-25.26-3.77-68.93-14.32-110.64-43.63a373 373 0 0 0 63.82-54.39 391.84 391.84 0 0 0 78.64-124.23c1.25-3.15 2.45-6.33 3.62-9.51A280.61 280.61 0 0 1 923 807c10.17 46.41 3.36 79-7.25 89.6z" fill="#222222" p-id="1461"></path><path d="M192 624a56 32 0 1 0 112 0 56 32 0 1 0-112 0Z" fill="#FFA096" p-id="1462"></path><path d="M720 624a56 32 0 1 0 112 0 56 32 0 1 0-112 0Z" fill="#FFA096" p-id="1463"></path><path d="M353.94 455.43l-13.25 13.25a48.16 48.16 0 0 0-4.69-1.94V448a16 16 0 0 0-32 0v18.74a48.16 48.16 0 0 0-4.69 1.94l-13.25-13.25a16 16 0 0 0-22.63 22.63l13.25 13.25a48 48 0 1 0 86.64 0l13.25-13.25a16 16 0 0 0-22.63-22.63zM760.57 455.43a16 16 0 0 0-22.63 0l-13.25 13.25a48.16 48.16 0 0 0-4.69-1.94V448a16 16 0 0 0-32 0v18.74a48.16 48.16 0 0 0-4.69 1.94l-13.25-13.25a16 16 0 1 0-22.63 22.63l13.25 13.25a48 48 0 1 0 86.64 0l13.25-13.25a16 16 0 0 0 0-22.63z" fill="#222222" p-id="1464"></path><path d="M512 848c67.49 0 124.47-43.53 142.65-103.17 6.22-20.41-9.8-40.83-31.77-40.83H401.11c-22 0-38 20.42-31.77 40.83C387.52 804.47 444.51 848 512 848z" fill="#FF6242" p-id="1465"></path><path d="M594.61 832c0-44.18-37-80-82.62-80s-82.61 35.82-82.61 80c0 0 18.61 16 82.61 16s82.62-16 82.62-16z" fill="#FFA096" p-id="1466"></path><path d="M662.67 707.89a49.62 49.62 0 0 0-39.8-19.89H401.11a49.62 49.62 0 0 0-39.8 19.89 46.51 46.51 0 0 0-7.27 41.6c0.79 2.61 1.67 5.19 2.6 7.75 0 0.08 0 0.17 0.07 0.25l0.36 1 0.09 0.23a159 159 0 0 0 38.72 58.78 162.46 162.46 0 0 0 16.82 14.22 166.28 166.28 0 0 0 96 32.3h6.54a166.28 166.28 0 0 0 96-32.3 162.46 162.46 0 0 0 16.82-14.22 158.89 158.89 0 0 0 38.73-58.8 1.67 1.67 0 0 1 0.08-0.2l0.36-1c0-0.09 0.05-0.17 0.07-0.25q1.41-3.84 2.6-7.75a46.45 46.45 0 0 0-7.23-41.61zM387 726.93a17.32 17.32 0 0 1 14.11-6.93h221.76a17.31 17.31 0 0 1 14.13 6.93 14.66 14.66 0 0 1 2.37 13.23c-0.87 2.86-1.86 5.67-2.93 8.43-0.25 0.66-0.5 1.32-0.76 2-0.48 1.18-1 2.33-1.49 3.49-0.16 0.36-0.31 0.72-0.47 1.07-19.37 42.71-62.13 72.44-110.58 76.42h-0.25c-1.56 0.13-3.13 0.22-4.69 0.29h-0.76c-1.8 0.07-3.6 0.11-5.41 0.11s-3.61 0-5.4-0.11h-0.76c-1.57-0.07-3.14-0.16-4.7-0.29h-0.25c-48.44-4-91.2-33.7-110.58-76.41l-0.48-1.1c-0.5-1.15-1-2.3-1.47-3.46-0.27-0.66-0.52-1.33-0.78-2-1.06-2.76-2.05-5.56-2.92-8.41a14.7 14.7 0 0 1 2.31-13.26z" fill="#222222" p-id="1467"></path></svg>